<?xml version="1.0" standalone="no"?>
<!DOCTYPE svg PUBLIC "-//W3C//DTD SVG 20010904//EN"
 "http://www.w3.org/TR/2001/REC-SVG-20010904/DTD/svg10.dtd">
<svg version="1.0" xmlns="http://www.w3.org/2000/svg"
 width="571.000000pt" height="571.000000pt" viewBox="0 0 571.000000 571.000000"
 preserveAspectRatio="xMidYMid meet">

<g transform="translate(0.000000,571.000000) scale(0.100000,-0.100000)"
fill="#000000" stroke="none">
<path d="M1580 5419 c-41 -4 -93 -12 -115 -16 -37 -8 -40 -11 -37 -38 6 -53
71 -234 117 -327 93 -188 226 -352 353 -438 28 -19 52 -37 52 -41 0 -3 -35
-19 -77 -37 -181 -74 -371 -230 -467 -384 -109 -176 -155 -338 -163 -575 l-6
-163 69 6 c118 9 312 44 410 73 73 22 94 25 94 15 0 -8 -7 -58 -17 -112 -23
-136 -23 -455 0 -622 97 -698 349 -1259 728 -1625 113 -109 186 -165 310 -241
237 -145 538 -244 739 -244 136 0 226 31 310 107 111 100 134 233 85 483 -56
288 -33 455 130 923 46 133 95 281 110 329 140 466 90 1027 -132 1460 -173
341 -430 562 -751 650 -64 18 -107 21 -257 22 -99 1 -208 -3 -242 -7 l-63 -9
0 29 c0 43 33 151 68 219 17 33 58 90 91 127 34 37 61 74 61 82 0 9 -19 36
-41 60 -59 64 -88 62 -133 -7 -60 -95 -96 -210 -108 -342 -3 -27 -8 -22 -55
56 -207 340 -517 557 -842 588 -108 11 -116 11 -221 -1z m485 -704 c112 -55
180 -77 315 -100 l75 -13 -85 -1 c-147 -1 -292 43 -393 121 -53 40 -157 140
-157 150 0 4 30 -17 68 -47 37 -30 117 -80 177 -110z m1217 -254 c95 -25 205
-75 289 -131 84 -57 222 -197 281 -286 231 -348 335 -856 264 -1284 -22 -131
-50 -231 -132 -467 -164 -474 -187 -573 -188 -803 -1 -133 3 -184 21 -265 34
-156 37 -205 19 -267 -18 -63 -62 -113 -126 -141 -53 -24 -185 -27 -289 -8
-157 30 -432 148 -578 247 -364 250 -631 648 -793 1184 -136 453 -169 896 -94
1252 l17 78 95 50 c183 96 346 233 460 385 65 87 143 243 177 356 l27 87 81
16 c45 9 91 18 102 20 51 12 293 -3 367 -23z m-1224 -45 c-190 -95 -338 -213
-453 -361 -85 -111 -151 -228 -196 -349 -19 -50 -19 -50 -14 -11 42 298 212
533 483 669 68 34 235 96 257 95 6 0 -29 -20 -77 -43z"/>
</g>
</svg>
