<?xml version="1.0" standalone="no"?>
<!DOCTYPE svg PUBLIC "-//W3C//DTD SVG 20010904//EN"
 "http://www.w3.org/TR/2001/REC-SVG-20010904/DTD/svg10.dtd">
<svg version="1.0" xmlns="http://www.w3.org/2000/svg"
 width="571.000000pt" height="571.000000pt" viewBox="0 0 571.000000 571.000000"
 preserveAspectRatio="xMidYMid meet">

<g transform="translate(0.000000,571.000000) scale(0.100000,-0.100000)"
fill="#000000" stroke="none">
<path d="M2595 4824 c-429 -58 -809 -247 -1121 -558 -382 -381 -594 -888 -594
-1423 0 -245 27 -417 100 -637 281 -844 1114 -1394 2008 -1327 922 70 1667
767 1797 1682 19 137 19 408 -1 550 -117 841 -756 1528 -1574 1693 -187 37
-429 46 -615 20z m-7 -279 c-12 -161 -35 -240 -124 -424 -41 -86 -84 -182 -95
-213 -26 -79 -33 -175 -20 -293 32 -277 29 -320 -39 -555 -71 -246 -71 -305 1
-537 63 -201 66 -239 39 -444 -33 -254 -25 -299 96 -539 78 -157 95 -215 103
-358 3 -68 3 -126 -2 -129 -24 -15 -371 87 -409 121 -35 30 -121 179 -149 256
-22 59 -24 77 -19 195 10 296 11 291 -96 545 -44 105 -48 122 -47 195 0 56 9
118 31 205 41 162 42 237 2 415 -49 222 -44 276 55 520 28 71 57 151 63 177 7
28 12 130 12 250 0 138 5 219 14 254 14 53 84 199 119 248 l20 28 -24 -12
c-67 -36 -194 -127 -270 -193 -116 -103 -153 -145 -173 -196 -19 -48 -65 -118
-172 -263 -109 -146 -116 -172 -124 -418 -5 -155 -11 -216 -23 -249 -10 -24
-33 -83 -52 -131 -68 -171 -66 -222 18 -429 l51 -126 1 -200 c0 -197 1 -201
27 -255 15 -30 45 -80 67 -110 154 -214 189 -277 220 -397 9 -31 25 -54 64
-87 77 -68 50 -56 -45 20 -599 477 -832 1271 -588 2005 186 559 623 1001 1170
1183 114 38 291 78 301 67 3 -3 2 -60 -3 -126z m604 110 c93 -20 262 -72 308
-95 28 -15 46 -38 92 -126 85 -163 89 -184 88 -427 0 -245 6 -280 84 -464 101
-239 108 -301 55 -523 -44 -183 -44 -279 -2 -445 57 -218 53 -261 -35 -466
-88 -202 -99 -256 -83 -424 5 -55 5 -140 1 -189 -7 -76 -15 -102 -53 -180 -62
-126 -75 -138 -189 -180 -93 -35 -285 -86 -319 -86 -14 0 -16 12 -12 93 9 171
25 232 112 411 62 126 84 184 97 250 16 82 16 91 -6 266 -24 196 -23 252 10
361 78 264 80 271 80 356 0 89 -10 135 -67 323 -45 149 -52 257 -28 470 24
227 11 300 -100 520 -101 201 -122 276 -139 503 -6 78 -10 76 106 52z m906
-494 c55 -55 129 -138 164 -185 70 -93 151 -224 151 -243 0 -7 4 -13 7 -13 12
0 107 -218 139 -316 28 -88 64 -240 76 -319 14 -94 17 -336 6 -435 -20 -176
-82 -416 -129 -505 -9 -16 -16 -32 -17 -35 -1 -17 -40 -90 -47 -90 -5 0 -7 -4
-3 -10 7 -12 -49 -103 -59 -93 -4 4 -4 0 0 -10 4 -11 1 -17 -7 -17 -7 0 -9 -3
-6 -6 5 -6 -12 -36 -45 -79 -4 -5 -33 -43 -64 -82 -30 -40 -59 -73 -65 -73 -5
0 -8 -6 -7 -12 2 -7 -3 -12 -10 -10 -8 1 -11 -1 -8 -6 5 -9 -163 -176 -170
-169 -14 14 86 233 117 257 3 3 43 55 88 115 120 162 124 176 125 430 l1 210
44 100 c24 55 53 135 64 178 26 100 19 142 -61 340 l-57 142 -1 200 c-1 188
-2 204 -25 260 -29 70 -69 132 -174 270 -42 55 -86 120 -97 145 -37 81 -55
125 -62 153 -6 25 -5 27 12 18 11 -6 65 -55 120 -110z"/>
</g>
</svg>
