<?xml version="1.0" standalone="no"?>
<!DOCTYPE svg PUBLIC "-//W3C//DTD SVG 20010904//EN"
 "http://www.w3.org/TR/2001/REC-SVG-20010904/DTD/svg10.dtd">
<svg version="1.0" xmlns="http://www.w3.org/2000/svg"
 width="571.000000pt" height="571.000000pt" viewBox="0 0 571.000000 571.000000"
 preserveAspectRatio="xMidYMid meet">

<g transform="translate(0.000000,571.000000) scale(0.100000,-0.100000)"
fill="#000000" stroke="none">
<path d="M1186 4626 c-179 -185 -366 -304 -616 -391 -124 -43 -143 -54 -159
-93 -11 -25 -10 -36 4 -65 18 -39 50 -57 100 -57 39 0 176 47 284 96 41 19 75
34 76 34 2 0 37 -52 79 -115 111 -166 234 -312 388 -460 l136 -131 -81 -17
c-102 -20 -240 -88 -324 -157 -81 -67 -162 -174 -212 -280 -61 -127 -75 -194
-75 -340 0 -108 4 -136 27 -206 63 -189 201 -323 393 -380 92 -27 271 -21 356
11 14 6 14 1 0 -47 -9 -33 -15 -99 -16 -178 -1 -105 3 -137 22 -200 61 -197
204 -339 395 -395 72 -21 221 -21 309 -1 74 17 207 80 255 120 17 14 35 26 39
26 5 0 23 -23 39 -51 44 -75 146 -166 231 -206 245 -116 529 -55 754 163 l46
44 49 -76 c216 -332 706 -338 1022 -12 155 159 233 346 233 552 -1 222 -116
417 -300 509 -40 21 -79 37 -86 37 -27 0 -22 20 21 85 48 74 97 198 114 290
38 206 -22 410 -163 550 -147 146 -348 201 -587 159 l-36 -6 26 73 c23 65 26
90 26 209 0 106 -4 147 -19 190 -32 95 -79 173 -141 235 -227 227 -617 217
-896 -24 -40 -35 -53 -41 -60 -30 -5 8 -9 18 -9 23 0 19 -62 130 -102 182 -41
55 -133 131 -199 165 -69 35 -179 59 -269 59 -383 -1 -705 -329 -738 -751 l-7
-94 -94 95 c-52 52 -130 140 -174 195 -86 107 -199 273 -195 285 2 4 39 35 83
68 44 33 122 103 173 155 89 93 92 98 92 142 0 62 -32 95 -91 95 -40 0 -47 -5
-123 -84z m1224 -278 c266 -99 384 -408 275 -721 -94 -272 -366 -455 -616
-416 -163 25 -295 135 -365 304 -27 65 -29 79 -29 205 0 125 2 141 31 221 115
322 435 506 704 407z m1177 -233 c156 -77 230 -219 221 -419 -6 -117 -34 -203
-100 -304 -67 -104 -228 -238 -308 -257 -24 -6 -27 -3 -39 45 -54 209 -227
374 -440 418 l-77 16 12 55 c8 31 16 94 20 141 l6 85 82 80 c186 184 424 238
623 140z m-651 -675 c72 -25 154 -80 195 -131 168 -212 124 -558 -99 -776
-293 -287 -712 -202 -807 164 -25 96 -16 241 21 333 13 32 21 38 66 49 162 42
355 191 441 343 21 36 24 38 73 38 28 0 77 -9 110 -20z m1295 -146 c78 -23
125 -50 181 -101 99 -93 144 -215 135 -368 -9 -160 -71 -289 -204 -422 -103
-103 -219 -165 -358 -190 -279 -51 -516 108 -556 375 -25 167 55 392 172 482
24 18 73 62 109 96 67 65 121 95 225 125 79 23 223 24 296 3z m-2602 -15 c33
-8 61 -25 106 -67 33 -31 77 -66 97 -77 94 -50 144 -267 103 -445 -27 -113
-90 -225 -175 -311 -82 -83 -138 -120 -237 -156 -170 -62 -333 -30 -460 90
-95 90 -139 216 -131 378 8 164 69 298 193 423 146 147 324 205 504 165z m465
-246 c-9 -38 -10 -38 -22 -4 -10 28 -9 31 9 31 16 0 18 -5 13 -27z m-8 -431
c-12 -11 -18 7 -10 30 l8 23 4 -23 c2 -13 1 -26 -2 -30z m1209 -103 c6 -17 1
-19 -49 -19 l-56 0 40 53 c22 28 40 57 41 62 1 6 5 -10 10 -34 4 -23 11 -52
14 -62z m-1095 -79 c88 -124 266 -210 431 -210 48 0 48 0 61 -42 8 -25 13 -91
12 -158 0 -98 -4 -126 -26 -188 -39 -107 -83 -177 -168 -262 -88 -87 -182
-140 -300 -166 -224 -51 -446 86 -505 311 -19 76 -19 214 0 290 29 112 67 177
168 285 52 56 110 111 128 123 38 23 139 66 154 66 6 0 26 -22 45 -49z m1119
-89 c35 -7 52 -18 80 -52 52 -63 93 -98 169 -145 60 -37 68 -46 85 -95 28 -80
33 -200 13 -293 -71 -315 -371 -551 -647 -507 -131 21 -246 105 -308 223 l-30
57 43 64 c94 141 142 311 134 479 l-5 99 46 40 c60 52 170 106 251 123 77 17
109 18 169 7z m1237 -130 c174 -81 268 -278 230 -480 -29 -154 -89 -265 -206
-374 -122 -115 -235 -166 -390 -174 -76 -4 -107 -1 -156 15 -127 40 -230 139
-269 260 -19 57 -18 68 15 157 28 77 50 192 50 262 0 45 5 63 27 92 54 74 86
101 118 101 85 0 303 87 375 150 32 28 40 30 88 26 29 -3 82 -18 118 -35z"/>
</g>
</svg>
