<?xml version="1.0" standalone="no"?>
<!DOCTYPE svg PUBLIC "-//W3C//DTD SVG 20010904//EN"
 "http://www.w3.org/TR/2001/REC-SVG-20010904/DTD/svg10.dtd">
<svg version="1.0" xmlns="http://www.w3.org/2000/svg"
 width="571.000000pt" height="571.000000pt" viewBox="0 0 571.000000 571.000000"
 preserveAspectRatio="xMidYMid meet">

<g transform="translate(0.000000,571.000000) scale(0.100000,-0.100000)"
fill="#000000" stroke="none">
<path d="M2626 4780 c-511 -65 -957 -355 -1259 -820 -449 -694 -445 -1652 11
-2350 269 -413 651 -683 1106 -782 87 -19 131 -22 321 -22 242 0 320 12 508
75 578 193 1035 721 1197 1381 48 197 63 351 57 592 -7 290 -48 506 -143 746
-244 616 -735 1046 -1322 1160 -121 24 -366 34 -476 20z m307 -165 c124 -7
373 -67 361 -86 -3 -5 3 -6 12 -2 12 4 15 3 10 -5 -4 -7 -2 -10 7 -6 28 10
247 -104 312 -163 17 -16 48 -54 68 -85 21 -32 42 -58 48 -58 5 0 9 -5 9 -11
0 -28 109 -189 200 -297 11 -13 20 -26 20 -29 0 -2 11 -19 24 -36 13 -18 42
-66 64 -109 22 -42 44 -73 48 -70 4 4 4 2 0 -5 -3 -6 3 -27 14 -45 11 -19 26
-54 34 -79 8 -24 24 -71 36 -104 69 -198 99 -390 100 -635 0 -247 -37 -465
-112 -662 -16 -43 -31 -84 -32 -91 -5 -22 -92 -191 -131 -252 -111 -173 -269
-349 -401 -446 -134 -98 -328 -193 -451 -219 -29 -7 -53 -16 -53 -21 0 -6 -4
-8 -9 -4 -6 3 -41 1 -78 -5 -174 -28 -441 -4 -603 55 -41 15 -83 28 -92 28 -9
1 -15 3 -13 5 10 10 -212 103 -255 107 -19 1 -148 62 -158 75 -12 13 -12 13
-6 0 7 -13 6 -13 -10 0 -10 8 -25 15 -33 16 -8 1 -21 11 -29 21 -7 10 -14 14
-14 9 0 -10 115 -123 149 -146 13 -8 27 -14 33 -12 5 1 7 -2 3 -7 -7 -12 29
-33 40 -23 5 4 5 2 2 -4 -4 -7 4 -19 18 -28 14 -9 25 -14 25 -12 0 3 12 -6 27
-20 14 -13 28 -22 31 -20 2 3 11 -2 19 -10 8 -8 19 -11 25 -8 6 4 8 2 5 -3 -4
-6 7 -16 25 -22 17 -6 29 -14 25 -17 -9 -10 -211 100 -300 163 -102 73 -285
253 -364 358 -191 256 -310 542 -369 890 -22 127 -25 449 -5 585 47 333 185
672 370 915 201 262 477 470 743 559 140 47 407 90 498 80 14 -2 65 -6 113 -9z
m-643 -3529 c0 -2 -8 -10 -17 -17 -16 -13 -17 -12 -4 4 13 16 21 21 21 13z"/>
<path d="M2260 4460 c0 -5 5 -10 11 -10 5 0 7 5 4 10 -3 6 -8 10 -11 10 -2 0
-4 -4 -4 -10z"/>
<path d="M3420 4460 c-12 -7 -10 -9 7 -7 12 0 19 5 17 9 -6 10 -6 10 -24 -2z"/>
<path d="M2039 4283 c-13 -16 -12 -17 4 -4 9 7 17 15 17 17 0 8 -8 3 -21 -13z"/>
<path d="M1871 4216 c-9 -11 -9 -16 1 -22 7 -4 10 -4 6 1 -4 4 -3 14 3 22 6 7
9 13 6 13 -2 0 -10 -6 -16 -14z"/>
<path d="M1600 3916 c0 -2 8 -10 18 -17 15 -13 16 -12 3 4 -13 16 -21 21 -21
13z"/>
<path d="M2750 3838 c-28 -30 -26 -83 8 -149 37 -73 56 -75 87 -7 31 65 32
116 4 152 -26 33 -70 35 -99 4z"/>
<path d="M2406 3774 c-44 -43 -26 -108 47 -168 64 -52 77 -43 77 51 0 69 -2
77 -29 104 -33 32 -71 38 -95 13z"/>
<path d="M3142 3733 c-23 -9 -44 -66 -45 -124 -2 -92 25 -101 102 -30 36 33
41 43 41 80 0 60 -14 81 -53 80 -18 0 -38 -3 -45 -6z"/>
<path d="M2122 3504 c-26 -18 -30 -68 -7 -101 17 -24 111 -63 151 -63 37 0 38
22 4 90 -24 47 -39 65 -65 76 -44 18 -55 18 -83 -2z"/>
<path d="M3450 3483 c-28 -10 -62 -48 -86 -95 -39 -77 -18 -93 84 -63 60 18
92 53 92 101 0 48 -42 74 -90 57z"/>
<path d="M1987 3169 c-67 -18 -78 -70 -25 -114 30 -26 37 -27 97 -21 113 12
127 34 57 91 -51 42 -90 55 -129 44z"/>
<path d="M3515 3095 c-80 -56 -82 -79 -9 -96 75 -17 113 -12 145 20 53 53 28
111 -48 111 -29 0 -52 -9 -88 -35z"/>
<path d="M1939 2761 c-34 -34 -37 -63 -9 -91 38 -38 119 -20 188 43 33 30 27
43 -25 61 -73 25 -119 21 -154 -13z"/>
<path d="M3510 2739 c-52 -10 -76 -34 -58 -57 20 -23 91 -69 119 -75 64 -16
121 36 97 89 -22 48 -68 61 -158 43z"/>
<path d="M2113 2426 c-69 -17 -101 -39 -111 -79 -19 -68 33 -107 101 -76 34
15 89 104 85 136 -4 33 -10 34 -75 19z"/>
<path d="M3393 2393 c-19 -7 -16 -28 12 -82 43 -85 110 -116 155 -71 45 45 3
118 -81 140 -70 18 -73 18 -86 13z"/>
<path d="M2303 2075 c-73 -64 -82 -133 -22 -166 28 -15 76 6 93 40 20 39 30
139 16 157 -19 22 -31 18 -87 -31z"/>
<path d="M3120 2017 c0 -80 12 -107 60 -132 50 -26 89 4 90 68 0 33 -7 45 -52
88 -31 30 -60 49 -75 49 -22 0 -23 -3 -23 -73z"/>
<path d="M2741 1930 c-32 -53 -45 -106 -35 -142 12 -40 50 -64 87 -54 52 13
64 80 28 162 -32 72 -51 80 -80 34z"/>
</g>
</svg>
