<?xml version="1.0" standalone="no"?>
<!DOCTYPE svg PUBLIC "-//W3C//DTD SVG 20010904//EN"
 "http://www.w3.org/TR/2001/REC-SVG-20010904/DTD/svg10.dtd">
<svg version="1.0" xmlns="http://www.w3.org/2000/svg"
 width="571.000000pt" height="571.000000pt" viewBox="0 0 571.000000 571.000000"
 preserveAspectRatio="xMidYMid meet">

<g transform="translate(0.000000,571.000000) scale(0.100000,-0.100000)"
fill="#000000" stroke="none">
<path d="M3050 4545 c-335 -51 -654 -191 -955 -418 -96 -73 -310 -284 -388
-383 -129 -165 -265 -403 -330 -579 -75 -202 -107 -365 -114 -580 -6 -193 10
-323 64 -506 33 -114 36 -135 37 -259 1 -74 -5 -176 -12 -227 -15 -106 -9
-145 37 -214 60 -90 155 -117 326 -92 151 23 281 13 435 -32 192 -55 294 -68
505 -62 200 6 303 24 490 84 464 149 878 470 1156 896 308 471 406 1010 269
1477 -54 183 -60 268 -32 510 14 131 -17 212 -107 275 -41 29 -46 30 -144 28
-455 -9 -412 -11 -527 24 -58 17 -141 39 -185 48 -111 24 -399 29 -525 10z
m505 -144 c50 -10 131 -31 180 -45 147 -44 273 -53 418 -33 161 23 179 22 216
-9 41 -34 47 -76 27 -195 -28 -172 -20 -291 34 -474 46 -157 63 -273 62 -430
-1 -400 -151 -797 -432 -1140 -106 -129 -142 -166 -265 -272 -460 -397 -1051
-566 -1529 -437 -50 13 -125 33 -166 44 -108 29 -263 36 -382 16 -145 -24
-164 -22 -204 18 -41 41 -42 64 -18 231 21 140 9 273 -41 443 -52 180 -59 232
-59 417 0 136 4 193 22 283 131 659 636 1249 1282 1497 105 41 308 92 415 104
113 14 333 5 440 -18z"/>
</g>
</svg>
