<?xml version="1.0" standalone="no"?>
<!DOCTYPE svg PUBLIC "-//W3C//DTD SVG 20010904//EN"
 "http://www.w3.org/TR/2001/REC-SVG-20010904/DTD/svg10.dtd">
<svg version="1.0" xmlns="http://www.w3.org/2000/svg"
 width="571.000000pt" height="571.000000pt" viewBox="0 0 571.000000 571.000000"
 preserveAspectRatio="xMidYMid meet">

<g transform="translate(0.000000,571.000000) scale(0.100000,-0.100000)"
fill="#000000" stroke="none">
<path d="M1480 4700 c-256 -23 -561 -120 -777 -248 -35 -20 -63 -40 -63 -43 0
-19 122 -158 193 -220 194 -168 446 -307 735 -405 9 -3 0 -19 -28 -52 -59 -66
-135 -183 -180 -278 -149 -309 -186 -693 -104 -1063 116 -521 464 -986 899
-1201 252 -125 489 -156 725 -95 57 15 67 15 126 0 374 -94 765 35 1107 364
386 372 602 932 558 1449 -32 381 -156 659 -405 908 -169 168 -337 273 -573
354 -114 40 -369 100 -425 100 -16 0 -28 4 -28 8 0 17 117 96 198 133 45 22
82 44 82 51 0 7 -16 52 -36 100 -45 107 -50 108 -156 38 -96 -64 -184 -151
-243 -240 l-47 -70 -111 0 c-62 0 -161 -5 -221 -10 l-108 -11 -97 93 c-143
139 -276 221 -449 277 -162 53 -386 77 -572 61z m386 -155 c154 -29 272 -78
401 -167 68 -47 119 -93 83 -74 -9 4 -8 2 2 -7 10 -8 14 -18 10 -22 -4 -5 -2
-5 4 -2 6 4 24 -5 38 -18 15 -14 24 -25 20 -25 -3 0 -1 -7 6 -15 7 -8 17 -12
23 -8 5 3 7 1 3 -5 -3 -6 2 -17 11 -24 32 -24 84 -98 77 -110 -4 -6 -3 -8 4
-4 14 8 55 -50 46 -65 -4 -7 -3 -9 3 -6 17 11 24 -21 8 -37 -12 -12 -90 -33
-190 -50 -16 -3 -66 -13 -110 -22 -87 -17 -373 -24 -462 -12 -114 17 -308 69
-323 87 -3 3 -14 7 -25 9 -37 6 -305 141 -305 153 0 7 -3 9 -7 6 -3 -4 -12 1
-20 11 -8 9 -11 11 -7 3 9 -18 -103 58 -138 94 -16 15 -28 25 -28 21 0 -4 -7
-1 -16 6 -27 21 -114 108 -114 114 0 20 316 132 445 158 190 38 398 42 561 11z
m-64 -815 c14 0 4 -17 -37 -67 -110 -137 -213 -362 -255 -558 -27 -129 -37
-384 -21 -521 41 -339 176 -651 403 -936 110 -138 275 -282 411 -358 31 -17
57 -34 57 -36 0 -6 -76 24 -141 56 -222 111 -466 341 -609 575 -103 168 -188
384 -231 585 -32 152 -33 450 -1 595 55 255 148 442 300 607 51 54 70 68 86
64 12 -3 29 -6 38 -6z"/>
<path d="M1408 4473 c7 -3 16 -2 19 1 4 3 -2 6 -13 5 -11 0 -14 -3 -6 -6z"/>
<path d="M1723 4473 c9 -2 23 -2 30 0 6 3 -1 5 -18 5 -16 0 -22 -2 -12 -5z"/>
<path d="M980 4406 c0 -2 7 -7 16 -10 8 -3 12 -2 9 4 -6 10 -25 14 -25 6z"/>
<path d="M2295 4320 c3 -5 8 -10 11 -10 2 0 4 5 4 10 0 6 -5 10 -11 10 -5 0
-7 -4 -4 -10z"/>
</g>
</svg>
