<?xml version="1.0" standalone="no"?>
<!DOCTYPE svg PUBLIC "-//W3C//DTD SVG 20010904//EN"
 "http://www.w3.org/TR/2001/REC-SVG-20010904/DTD/svg10.dtd">
<svg version="1.0" xmlns="http://www.w3.org/2000/svg"
 width="571.000000pt" height="571.000000pt" viewBox="0 0 571.000000 571.000000"
 preserveAspectRatio="xMidYMid meet">

<g transform="translate(0.000000,571.000000) scale(0.100000,-0.100000)"
fill="#000000" stroke="none">
<path d="M2993 5001 c-108 -90 -165 -186 -185 -314 l-12 -75 -47 -6 c-64 -9
-181 -50 -248 -87 -142 -80 -258 -206 -326 -351 -43 -94 -60 -168 -75 -323
-37 -385 -191 -829 -424 -1223 -122 -205 -160 -308 -178 -480 -19 -187 11
-351 97 -527 127 -262 353 -447 633 -522 132 -36 338 -38 486 -5 124 28 201
28 329 0 149 -33 346 -31 477 4 184 50 322 128 451 257 126 127 214 278 260
451 32 119 33 367 2 480 -35 124 -60 181 -134 305 -139 234 -249 473 -328 716
-44 137 -96 347 -88 355 3 3 48 -8 99 -25 52 -16 133 -38 180 -47 81 -17 87
-17 112 -1 34 23 35 69 1 130 -36 64 -79 197 -110 338 -58 262 -130 396 -302
559 -122 116 -305 219 -433 245 -66 13 -66 13 -63 52 3 27 -5 53 -24 88 -40
72 -70 73 -150 6z m154 -277 l30 -6 6 -126 c8 -183 48 -311 138 -444 79 -117
187 -217 309 -286 75 -43 56 -40 -33 4 -109 56 -184 110 -268 194 -92 92 -151
189 -191 312 -26 79 -31 113 -36 226 -3 85 -1 132 5 132 6 0 24 -3 40 -6z
m-200 -101 c-3 -10 -5 -4 -5 12 0 17 2 24 5 18 2 -7 2 -21 0 -30z m-312 -215
c-51 -37 -148 -143 -184 -202 -48 -80 -79 -172 -91 -273 -41 -333 -74 -486
-154 -721 -80 -230 -167 -417 -303 -644 -126 -212 -158 -316 -157 -523 0 -155
13 -227 64 -350 56 -132 173 -287 277 -366 80 -60 83 -63 41 -45 -124 50 -290
198 -364 322 -93 157 -130 302 -121 479 9 173 41 267 167 475 237 393 397 865
439 1300 16 164 51 260 136 371 52 67 118 122 199 166 69 37 96 43 51 11z"/>
<path d="M1895 415 c-32 -31 -31 -53 3 -102 80 -115 152 -223 176 -266 l28
-47 80 0 c78 0 79 1 73 23 l-6 22 18 -23 c18 -21 25 -23 118 -20 l99 3 -130
131 c-169 172 -349 304 -414 304 -12 0 -32 -11 -45 -25z"/>
<path d="M3750 179 c-37 -22 -220 -168 -220 -175 0 -2 58 -4 129 -4 l128 0 37
47 c45 58 47 92 5 127 -37 31 -35 31 -79 5z"/>
</g>
</svg>
