<?xml version="1.0" standalone="no"?>
<!DOCTYPE svg PUBLIC "-//W3C//DTD SVG 20010904//EN"
 "http://www.w3.org/TR/2001/REC-SVG-20010904/DTD/svg10.dtd">
<svg version="1.0" xmlns="http://www.w3.org/2000/svg"
 width="571.000000pt" height="571.000000pt" viewBox="0 0 571.000000 571.000000"
 preserveAspectRatio="xMidYMid meet">

<g transform="translate(0.000000,571.000000) scale(0.100000,-0.100000)"
fill="#000000" stroke="none">
<path d="M2545 5094 c-34 -37 -83 -120 -75 -126 79 -59 153 -127 194 -178 61
-74 91 -119 84 -125 -2 -2 -31 0 -65 5 -125 17 -329 22 -463 11 -426 -37 -732
-163 -971 -401 -221 -221 -356 -529 -394 -902 l-7 -68 169 0 c92 1 202 5 243
10 41 4 76 7 78 6 1 -2 -12 -34 -29 -72 -141 -309 -179 -661 -109 -988 102
-467 411 -868 850 -1100 289 -152 574 -215 919 -203 326 12 612 99 883 270
316 200 572 522 687 865 61 184 75 275 75 502 0 226 -12 307 -74 493 -161 480
-552 869 -1046 1040 -119 42 -299 83 -401 93 l-73 7 0 117 c0 286 -126 542
-357 726 -37 30 -71 54 -76 54 -5 0 -24 -16 -42 -36z m-256 -549 c-3 -2 -57
-18 -121 -34 -508 -131 -882 -440 -1109 -916 -52 -108 -55 -95 -12 55 101 352
289 587 592 740 151 75 387 138 581 153 25 2 51 4 59 5 8 1 12 0 10 -3z m583
-219 c6 -42 10 -78 7 -80 -2 -2 -30 -7 -61 -11 l-57 -7 40 91 c21 50 39 97 39
104 1 32 21 -30 32 -97z m304 -256 c221 -38 440 -126 636 -256 107 -71 262
-210 251 -227 -3 -5 -1 -7 4 -4 10 6 76 -65 116 -123 9 -14 26 -37 37 -52 12
-16 17 -28 12 -28 -6 0 -24 23 -42 50 -32 50 -50 68 -30 30 6 -11 8 -26 4 -32
-4 -7 -3 -8 4 -4 7 4 12 1 12 -9 0 -9 5 -13 10 -10 6 4 10 -5 10 -21 0 -23 3
-26 25 -22 14 3 28 0 32 -6 3 -6 3 -8 -2 -4 -4 4 -14 0 -23 -8 -12 -12 -12
-18 -3 -24 7 -4 12 -11 12 -16 -3 -35 29 -134 45 -137 5 -1 9 -13 10 -27 1
-62 4 -72 18 -67 19 8 24 -9 16 -55 -4 -22 -3 -41 2 -44 6 -4 6 -9 -1 -14 -9
-5 -9 -14 -1 -34 5 -15 14 -25 19 -21 14 8 24 -13 16 -33 -3 -9 -8 -58 -11
-109 -3 -70 -1 -95 8 -98 15 -6 23 -151 10 -159 -5 -3 -9 18 -10 47 -3 67 -11
107 -23 107 -11 0 -17 -27 -23 -105 -3 -33 -7 -73 -10 -90 -4 -19 -2 -16 5 8
10 33 29 52 29 27 0 -15 -24 -64 -37 -75 -15 -12 -43 -93 -42 -120 0 -11 7 -1
16 23 19 56 24 50 9 -11 -9 -39 -14 -47 -29 -43 -15 4 -16 2 -6 -10 9 -11 8
-14 -5 -14 -13 0 -16 -8 -12 -36 3 -29 0 -38 -15 -41 -33 -9 -48 -79 -18 -88
10 -4 19 -13 19 -21 0 -8 9 -14 20 -14 24 0 25 -9 6 -36 -14 -19 -14 -19 -13
1 2 16 -3 19 -25 17 -16 -1 -28 2 -28 8 0 5 -7 10 -16 10 -11 0 -14 5 -9 18 5
13 3 14 -5 6 -7 -7 -12 -28 -13 -48 -1 -21 -4 -31 -9 -23 -6 9 -10 9 -20 -1
-9 -9 -9 -12 0 -12 7 0 12 -13 12 -28 0 -20 -7 -33 -25 -42 -13 -7 -27 -21
-31 -32 -3 -10 -12 -18 -20 -18 -22 0 1 32 38 53 17 10 28 20 25 24 -11 10
-84 -56 -97 -87 -7 -16 -16 -27 -21 -24 -5 3 -6 -2 -3 -10 4 -11 0 -16 -12
-16 -16 0 -17 -2 -4 -10 13 -9 7 -14 -13 -11 -4 0 -6 -4 -5 -11 2 -7 -4 -13
-12 -14 -30 -2 -32 -4 -19 -21 11 -13 11 -17 1 -20 -6 -3 -10 -9 -6 -14 3 -5
-10 -12 -28 -16 l-33 -7 35 -7 35 -6 -35 -2 c-20 0 -42 5 -49 12 -10 10 -11 9
-5 -6 5 -13 2 -16 -10 -11 -12 5 -15 2 -10 -11 5 -12 2 -16 -11 -13 -10 2 -20
-4 -22 -12 -4 -13 -3 -13 7 0 9 12 11 12 8 1 -2 -8 -14 -16 -26 -18 -33 -5
-74 -34 -68 -49 3 -8 0 -11 -10 -7 -9 3 -14 -1 -14 -12 0 -14 -3 -15 -14 -6
-12 10 -19 8 -35 -8 -12 -12 -18 -21 -15 -21 4 0 1 -7 -6 -15 -10 -12 -9 -15
5 -15 10 0 16 -3 12 -6 -3 -3 -15 -3 -27 1 -18 6 -19 9 -8 23 7 9 9 13 3 11
-5 -3 -27 -13 -48 -23 -22 -10 -35 -22 -31 -28 5 -7 2 -9 -8 -6 -8 4 -21 2
-29 -3 -10 -6 -10 -9 -1 -9 21 0 13 -16 -13 -28 -35 -16 -44 -14 -21 3 32 24
12 27 -38 6 -49 -22 -50 -24 -46 -113 1 -30 -2 -38 -16 -38 -9 0 -24 9 -34 20
-9 11 -31 21 -48 22 -17 1 -29 4 -27 7 3 2 -6 10 -20 17 -26 13 -62 8 -83 -13
-7 -7 -21 -13 -30 -12 -14 0 -13 2 3 10 14 6 7 7 -25 3 -75 -9 -100 -15 -95
-24 5 -9 -43 -20 -87 -20 -20 0 -27 4 -22 12 5 8 -30 10 -139 5 -81 -3 -147
-2 -147 2 0 13 -86 34 -109 26 -13 -4 -21 -2 -21 5 0 8 -7 9 -17 5 -29 -11
-38 -11 -36 1 3 16 -77 44 -108 38 -34 -7 -78 14 -58 27 10 6 6 9 -13 9 -16 0
-28 5 -28 11 0 8 -11 9 -32 5 -24 -4 -29 -3 -18 4 8 5 12 10 8 10 -5 0 -10 -1
-12 -2 -2 -2 -13 5 -24 15 -12 11 -26 16 -33 11 -8 -4 -10 -3 -5 4 4 7 2 12
-3 12 -6 0 -11 -9 -11 -21 0 -11 -5 -17 -10 -14 -6 4 -8 10 -5 15 3 5 -4 12
-16 15 -14 5 -25 2 -30 -6 -6 -10 2 -18 26 -29 19 -8 35 -20 35 -27 0 -7 7
-13 15 -13 9 0 12 -6 8 -16 -4 -12 -2 -15 8 -12 8 3 13 11 11 17 -1 7 2 10 8
6 6 -3 8 -11 5 -16 -4 -5 -1 -9 5 -9 6 0 9 -4 5 -10 -3 -5 -13 -7 -23 -4 -14
5 -15 4 -2 -5 12 -9 13 -11 1 -11 -8 0 -11 -3 -8 -6 4 -4 14 -1 22 6 11 9 19
10 26 3 8 -8 7 -13 -2 -18 -8 -6 -10 -4 -4 5 5 9 4 11 -4 6 -6 -4 -9 -12 -5
-17 3 -5 10 -7 15 -4 5 4 9 1 9 -5 0 -6 5 -8 10 -5 6 3 10 2 10 -4 0 -6 7 -7
17 -4 10 4 14 2 9 -5 -3 -6 -1 -14 5 -18 8 -5 9 -3 4 6 -6 10 -4 12 9 7 10 -4
24 -7 32 -7 9 0 12 -4 9 -10 -3 -5 0 -10 7 -11 7 0 4 -4 -7 -9 -11 -5 -14 -9
-7 -9 6 -1 14 0 16 2 3 1 17 -9 32 -23 16 -14 22 -17 14 -6 -13 17 -13 19 0
14 8 -3 26 4 40 16 14 11 19 14 13 6 -17 -19 -16 -28 5 -33 10 -3 5 -5 -13 -7
-26 -1 -27 -3 -10 -9 11 -5 30 -4 42 2 16 7 33 7 55 -1 l33 -11 -31 5 c-16 3
-41 1 -54 -4 -14 -5 -41 -5 -65 0 -67 15 -294 132 -391 202 -326 233 -535 550
-616 929 -16 80 -21 138 -22 267 0 184 15 290 66 445 40 125 135 314 162 325
11 5 55 16 96 25 107 23 202 53 320 102 45 19 192 93 205 103 6 5 35 -2 65
-15 30 -14 49 -24 43 -25 -18 0 -16 -20 2 -20 8 0 15 8 15 18 0 25 22 71 38
77 18 7 42 -5 42 -21 0 -8 -9 -14 -20 -14 -11 0 -20 6 -20 13 0 23 -20 -17
-20 -41 0 -22 -20 -52 -35 -52 -4 0 -13 7 -22 15 -8 8 -19 13 -24 10 -5 -4 -9
1 -9 10 0 9 -4 14 -8 11 -4 -2 -14 0 -22 6 -12 8 -12 9 3 4 9 -3 17 -2 17 3 0
5 -9 11 -20 14 -13 3 -20 0 -20 -10 0 -8 -4 -12 -9 -8 -5 3 -12 1 -16 -5 -4
-6 -10 -8 -15 -5 -4 3 -11 -5 -15 -18 -4 -13 -8 -17 -12 -9 -2 6 -9 12 -14 12
-6 0 -8 -4 -4 -9 3 -5 -5 -11 -17 -13 -27 -4 -35 -25 -11 -31 14 -3 13 -4 -2
-2 -11 1 -29 6 -39 10 -14 6 -17 5 -12 -4 4 -6 4 -11 -1 -10 -22 4 -41 -3 -67
-26 -33 -28 -42 -31 -48 -13 -3 9 -6 9 -12 0 -4 -8 1 -16 16 -21 l23 -10 -25
-1 -25 -2 25 -8 25 -8 -27 -1 c-23 -1 -28 3 -28 22 -1 20 -2 20 -11 5 -5 -10
-15 -18 -21 -18 -7 0 -6 5 2 15 14 16 10 18 -14 9 -9 -3 -13 -10 -10 -15 3 -5
-3 -8 -13 -7 -24 2 -113 -24 -113 -34 0 -4 8 -12 18 -17 15 -10 15 -11 -6 -17
-18 -5 -20 -9 -10 -15 9 -6 9 -9 1 -9 -6 0 -19 10 -27 22 -18 25 -21 17 -6
-13 6 -10 18 -19 26 -19 11 0 14 -6 9 -22 -10 -33 -16 -37 -62 -40 -33 -2 -39
-6 -30 -17 9 -10 7 -17 -8 -28 -20 -15 -20 -15 0 -11 15 4 21 0 21 -12 0 -15
-5 -16 -24 -9 -14 5 -21 5 -18 0 4 -5 2 -11 -4 -13 -5 -1 -11 -20 -12 -40 -2
-21 -6 -38 -10 -38 -3 0 -5 -17 -2 -37 2 -21 1 -33 -3 -28 -12 16 -33 16 -27
1 5 -14 33 -14 55 0 8 4 7 9 -2 15 -23 14 1 24 31 12 18 -7 29 -7 27 -1 -4 17
77 52 112 49 14 -2 21 1 17 8 -4 5 -13 8 -21 4 -8 -3 -15 0 -15 6 0 6 9 11 21
11 11 0 30 5 42 12 12 6 37 10 56 10 32 -1 33 -1 15 13 -18 14 -18 14 3 15 12
0 25 -5 29 -12 5 -8 10 -7 18 4 6 8 20 17 30 21 19 7 19 8 0 23 -18 15 -18 15
0 10 12 -4 17 -2 13 7 -3 9 7 12 40 11 40 -2 42 0 26 13 -10 8 -13 12 -6 9 6
-4 14 2 18 13 6 21 35 37 35 20 0 -14 52 -7 57 7 2 7 -6 10 -22 9 -40 -5 -19
13 25 20 33 6 40 11 40 29 0 32 39 64 83 69 34 3 65 17 39 17 -7 0 -12 5 -12
11 0 7 9 9 21 6 29 -8 62 24 52 49 -6 16 -4 17 8 7 9 -7 20 -8 28 -4 16 10 5
34 -12 25 -7 -3 -3 2 8 11 11 9 28 14 37 12 10 -3 15 0 12 8 -3 7 5 15 20 19
19 5 26 13 26 31 0 14 5 25 11 25 5 0 8 4 5 9 -3 5 0 14 8 20 11 9 15 9 19 -1
3 -9 7 -6 13 7 4 11 16 29 26 39 9 10 15 23 12 28 -11 17 -50 7 -68 -17 -21
-28 -66 -35 -66 -9 0 10 5 14 16 10 10 -4 13 -2 8 6 -5 8 -2 9 10 5 25 -10 15
13 -13 32 -22 14 -23 14 -17 -5 5 -15 -2 -24 -27 -39 -65 -39 -76 -76 -22 -74
l20 0 -20 10 c-17 8 -16 9 5 4 14 -3 30 -7 37 -9 34 -7 19 -14 -25 -13 -34 2
-58 9 -73 22 -12 11 -19 14 -14 6 5 -9 0 -20 -16 -32 -20 -15 -21 -19 -6 -19
9 0 17 -4 17 -10 0 -13 -13 -13 -28 2 -7 7 -16 8 -24 1 -7 -5 -19 -8 -25 -7
-7 1 -18 2 -24 3 -5 0 -8 5 -4 11 3 5 13 6 22 3 10 -4 14 -2 10 4 -8 13 20 26
35 16 7 -3 8 -1 4 5 -4 7 11 23 36 39 24 15 51 36 62 45 10 9 25 14 32 11 9
-3 12 0 9 9 -3 8 6 24 20 36 14 12 25 17 25 12 0 -6 5 -10 12 -10 6 0 8 3 5 6
-11 11 25 63 40 57 7 -3 13 -10 13 -15 0 -6 -7 -8 -15 -5 -8 4 -17 1 -21 -5
-5 -7 -2 -8 6 -3 9 6 11 4 5 -4 -6 -10 -3 -11 12 -2 11 6 23 7 27 3 4 -3 4 2
0 12 -5 14 -4 17 4 12 7 -4 12 -14 12 -22 0 -9 5 -12 12 -8 6 4 8 3 5 -3 -4
-6 -27 -9 -52 -8 -32 2 -43 0 -38 -8 4 -7 8 -18 9 -25 2 -10 -1 -11 -12 -1 -8
6 -17 9 -20 6 -3 -3 4 -10 15 -17 17 -9 22 -8 27 5 9 21 30 19 54 -7 11 -12
23 -18 27 -14 4 4 1 11 -7 16 -8 6 -10 10 -5 11 6 1 16 2 23 3 17 1 51 56 45
71 -2 7 0 16 6 19 6 4 7 14 4 24 -3 9 -3 14 2 10 4 -4 14 -3 22 3 7 6 13 8 13
4 0 -4 11 9 25 30 27 39 26 47 -3 51 -15 3 -16 2 -1 -9 14 -11 14 -14 2 -26
-12 -11 -17 -10 -28 5 -13 17 -16 17 -25 4 -8 -13 -10 -13 -10 3 0 9 -4 17
-10 17 -12 0 -12 -2 0 -34 5 -14 6 -26 1 -26 -5 0 -12 10 -16 23 -5 17 -8 18
-12 7 -3 -8 -9 -17 -14 -20 -4 -3 -10 -17 -14 -31 -5 -20 -1 -32 16 -48 22
-20 22 -22 6 -38 -16 -16 -17 -16 -17 4 0 13 -8 24 -20 28 -11 3 -20 10 -20
15 0 5 8 7 18 4 13 -5 14 -4 3 4 -7 5 -10 15 -7 21 4 6 5 11 2 11 -3 0 -12
-12 -19 -26 -8 -15 -17 -22 -20 -17 -4 6 12 31 36 56 53 58 61 67 98 122 17
25 38 45 47 46 9 1 35 1 57 1 l40 0 -35 8 c-22 5 28 8 137 9 131 1 199 -4 289
-19z m-1026 -539 c0 11 2 11 10 -1 14 -21 12 -33 -4 -27 -8 3 -18 -5 -25 -19
-6 -14 -19 -24 -31 -24 -21 0 -27 15 -10 25 6 3 10 1 10 -4 0 -6 5 -11 10 -11
6 0 10 16 10 36 0 31 2 35 15 24 12 -10 15 -10 15 1z m-73 -27 c-3 -3 -12 -4
-19 -1 -8 3 -5 6 6 6 11 1 17 -2 13 -5z m163 -24 c0 -5 -4 -10 -9 -10 -6 0
-13 5 -16 10 -3 6 1 10 9 10 9 0 16 -4 16 -10z m-240 -80 c0 -5 -5 -10 -11
-10 -5 0 -7 5 -4 10 3 6 8 10 11 10 2 0 4 -4 4 -10z m-230 -22 c0 -6 3 -8 7
-5 6 7 32 -21 33 -35 0 -5 -9 -8 -21 -8 -15 0 -19 5 -15 16 3 8 2 12 -4 9 -6
-3 -10 -4 -10 -1 0 2 -3 11 -6 20 -3 9 -1 16 5 16 6 0 11 -5 11 -12z m90 -32
c0 -3 -4 -8 -10 -11 -5 -3 -10 -1 -10 4 0 6 5 11 10 11 6 0 10 -2 10 -4z
m-100 -40 c-14 -14 -24 0 -16 21 6 15 8 15 16 3 6 -9 5 -19 0 -24z m2511 19
c-1 -15 -24 -12 -29 3 -3 9 2 13 12 10 10 -1 17 -7 17 -13z m-2344 -24 c8 -11
12 -12 13 -3 0 14 20 17 20 3 0 -13 -34 -24 -38 -12 -2 6 -16 11 -31 11 -18 0
-28 5 -28 15 0 19 47 9 64 -14z m2330 -23 c-3 -8 -6 -5 -6 6 -1 11 2 17 5 13
3 -3 4 -12 1 -19z m36 -5 c-4 -11 -3 -14 5 -9 8 5 10 1 5 -10 -4 -12 -3 -15 5
-10 7 4 12 5 12 2 0 -3 -4 -7 -9 -10 -12 -8 -44 42 -36 54 10 16 25 1 18 -17z
m-13 -50 c0 -32 -5 -28 -14 10 -4 19 -3 26 4 22 5 -3 10 -18 10 -32z m-2393 1
c-3 -3 -12 -4 -19 -1 -8 3 -5 6 6 6 11 1 17 -2 13 -5z m-27 -18 c0 -3 -4 -8
-10 -11 -5 -3 -10 -1 -10 4 0 6 5 11 10 11 6 0 10 -2 10 -4z m-180 -22 c0 -11
-28 -33 -34 -27 -13 13 -5 33 14 33 11 0 20 -3 20 -6z m2670 -24 c0 13 1 13
10 0 5 -8 10 -19 10 -25 0 -5 -4 -4 -9 4 -9 14 -11 12 -35 -34 l-14 -26 -4 31
c-3 23 -1 30 9 26 7 -3 13 1 13 10 0 8 -4 12 -10 9 -5 -3 -10 4 -10 16 0 21 0
21 20 -2 14 -17 19 -20 20 -9z m0 26 c0 -3 -4 -8 -10 -11 -5 -3 -10 -1 -10 4
0 6 5 11 10 11 6 0 10 -2 10 -4z m-2710 -46 c0 -5 -8 -10 -17 -10 -15 0 -16 2
-3 10 19 12 20 12 20 0z m-45 -32 c-4 -45 -4 -45 -16 -26 -7 12 -6 23 3 38 7
11 13 20 14 20 1 0 0 -15 -1 -32z m-31 -8 c-1 -29 -24 -70 -24 -42 0 7 6 12
13 12 9 0 9 2 0 8 -7 4 -10 17 -6 30 8 32 18 27 17 -8z m2831 -29 c8 -25 16
-55 18 -66 2 -11 7 -28 12 -37 4 -10 8 -30 8 -45 1 -16 6 -31 11 -34 5 -4 6
-17 3 -30 -4 -17 -14 -24 -32 -25 -26 -2 -29 7 -15 41 8 18 9 18 9 2 1 -10 6
-15 11 -12 6 3 10 0 11 -7 0 -10 2 -10 6 -1 2 7 -3 20 -12 29 -11 11 -14 25
-10 44 4 18 1 33 -8 41 -7 7 -11 23 -9 36 2 13 -1 23 -7 23 -6 0 -11 15 -11
33 0 24 -3 28 -10 17 -6 -9 -10 -10 -10 -3 0 6 -2 18 -5 26 -4 8 0 14 9 14 9
0 21 -18 31 -46z m-45 8 c0 -6 -4 -7 -10 -4 -5 3 -10 11 -10 16 0 6 5 7 10 4
6 -3 10 -11 10 -16z m106 -286 c-4 -31 -3 -41 3 -28 6 15 8 7 9 -30 0 -27 -2
-44 -5 -37 -8 20 -31 14 -36 -10 -4 -20 -4 -19 -6 5 0 17 5 30 15 34 11 4 12
8 4 13 -8 5 -8 19 1 53 15 60 22 60 15 0z m-26 21 c0 -8 -4 -12 -10 -9 -5 3
-10 -2 -10 -11 0 -10 -3 -15 -6 -11 -8 8 5 47 17 47 5 0 9 -7 9 -16z m48 -209
c2 -56 0 -70 -14 -78 -12 -7 -13 -11 -4 -17 15 -9 4 -160 -12 -160 -5 0 -6 -9
-3 -20 4 -12 1 -27 -5 -35 -6 -8 -9 -19 -5 -25 3 -5 1 -10 -5 -10 -7 0 -9 -7
-6 -16 3 -9 0 -30 -8 -47 -8 -18 -19 -54 -26 -80 -13 -49 -43 -97 -61 -97 -5
0 1 12 15 27 14 15 22 31 19 36 -3 5 -14 -4 -24 -20 -23 -34 -24 -28 -4 19 12
31 12 38 -1 54 -15 18 -15 18 -11 -3 3 -13 1 -26 -4 -29 -5 -3 -9 -1 -9 5 0 6
-7 8 -16 4 -14 -5 -15 -3 -5 15 6 11 11 47 12 79 0 52 2 55 11 30 6 -18 15
-26 24 -23 10 4 14 -3 13 -22 0 -24 -1 -25 -9 -7 -8 18 -9 18 -9 2 -1 -10 -5
-15 -11 -12 -5 3 -10 2 -10 -2 0 -15 44 -37 48 -24 2 6 8 11 14 11 7 0 7 -4 1
-12 -16 -20 -23 -48 -13 -48 4 0 14 17 21 38 6 20 16 42 20 48 5 6 6 20 2 29
-5 13 -3 16 6 10 10 -5 11 -2 7 13 -4 11 -2 39 5 63 6 24 11 60 10 80 -1 20 3
47 9 60 9 21 9 19 5 -11 -5 -27 -4 -31 5 -18 6 10 8 34 3 60 -6 38 -8 40 -14
18 -5 -19 -7 -20 -8 -6 -1 11 -7 27 -15 35 -16 17 -11 71 6 71 6 0 8 -14 4
-34 -4 -19 -2 -37 3 -40 16 -10 20 6 22 87 2 98 23 99 27 2z m-98 -125 c0 -5
-5 -10 -11 -10 -5 0 -7 5 -4 10 3 6 8 10 11 10 2 0 4 -4 4 -10z m0 -50 c0 -10
6 -21 13 -23 9 -4 9 -6 -1 -6 -7 -1 -17 11 -22 25 -13 32 -12 37 0 29 6 -3 10
-15 10 -25z m39 -7 c-1 -24 -3 -29 -6 -15 -2 12 -9 22 -14 22 -5 0 -9 5 -9 11
0 5 5 7 10 4 6 -3 10 -1 10 4 0 6 2 11 5 11 3 0 4 -17 4 -37z m-7 -86 c-6 -7
-9 -24 -6 -38 5 -23 5 -23 -10 -5 -12 14 -12 22 -3 37 6 10 16 19 21 19 4 0 4
-6 -2 -13z m-57 -17 c-3 -6 1 -13 9 -16 9 -3 16 -17 16 -30 0 -29 -20 -23 -36
9 -11 25 -8 47 7 47 6 0 7 -5 4 -10z m-30 -40 c3 -5 1 -10 -4 -10 -6 0 -11 5
-11 10 0 6 2 10 4 10 3 0 8 -4 11 -10z m56 -85 c5 4 6 -1 2 -10 -5 -13 -7 -14
-14 -3 -5 7 -8 18 -8 23 0 6 3 4 6 -3 2 -6 9 -10 14 -7z m-168 -60 c-3 -9 -8
-14 -10 -11 -3 3 -2 9 2 15 9 16 15 13 8 -4z m119 -160 c-9 -19 -22 -33 -28
-31 -7 3 -10 -3 -7 -15 3 -10 -1 -26 -8 -35 -7 -9 -18 -25 -24 -36 -11 -23
-28 -26 -33 -6 -2 9 0 8 7 -2 7 -10 11 -11 11 -2 0 6 -1 14 -2 15 -2 2 3 11
11 20 7 9 11 23 7 32 -3 8 0 14 7 12 7 -1 11 5 9 14 -1 10 6 19 19 22 11 3 23
15 26 26 3 12 9 21 14 21 5 0 1 -16 -9 -35z m-148 -32 c-10 -8 -18 -22 -16
-31 2 -12 0 -14 -6 -4 -5 7 -7 26 -4 42 4 26 6 28 25 18 20 -10 20 -11 1 -25z
m56 33 c0 -2 -7 -7 -16 -10 -8 -3 -12 -2 -9 4 6 10 25 14 25 6z m0 -47 c0 -5
-7 -9 -15 -9 -9 0 -12 6 -9 15 6 15 24 11 24 -6z m10 -39 c-5 -10 -7 -19 -5
-22 2 -2 -5 -4 -15 -4 -22 0 -28 32 -7 39 26 8 36 4 27 -13z m-71 -17 c2 -1
-6 -1 -18 0 -11 1 -21 8 -21 15 0 12 3 12 18 1 9 -7 19 -14 21 -16z m-51 -18
c-3 -3 -9 2 -12 12 -6 14 -5 15 5 6 7 -7 10 -15 7 -18z m69 -7 c-3 -8 -6 -5
-6 6 -1 11 2 17 5 13 3 -3 4 -12 1 -19z m-20 -20 c-3 -8 -6 -5 -6 6 -1 11 2
17 5 13 3 -3 4 -12 1 -19z m47 -37 c-39 -60 -42 -63 -47 -49 -3 7 -6 3 -6 -9
-1 -30 -71 -109 -82 -92 -4 7 -3 21 2 30 6 12 5 20 -3 25 -7 5 -8 3 -4 -5 5
-8 0 -14 -13 -18 -25 -6 -27 -18 -5 -27 8 -3 12 -11 9 -17 -4 -6 -14 -8 -22
-5 -8 3 -11 1 -8 -5 4 -5 15 -7 25 -4 10 3 -10 -24 -46 -60 -35 -36 -71 -65
-80 -65 -9 0 -12 -5 -8 -12 4 -7 3 -8 -4 -4 -7 4 -12 14 -12 22 0 8 4 13 9 10
5 -4 17 -3 26 0 13 6 14 9 3 16 -9 7 -6 8 11 4 18 -4 21 -2 12 7 -9 9 -16 9
-31 -1 -21 -13 -38 -16 -27 -6 16 16 -24 33 -67 30 -33 -3 -46 -1 -46 9 0 17
23 25 71 25 32 0 39 -3 39 -20 0 -11 6 -20 13 -21 6 -1 21 -2 32 -3 24 -1 56
25 37 32 -6 2 -12 11 -12 19 0 14 2 14 18 0 24 -22 38 -22 17 0 -14 14 -15 18
-4 27 8 6 15 18 17 26 5 22 40 57 57 57 8 0 12 -4 10 -8 -8 -12 28 -20 39 -9
8 8 6 9 -6 5 -35 -14 -25 3 53 83 20 21 29 38 25 48 -5 14 -4 15 9 4 14 -12
14 -15 -1 -39z m-44 10 c0 -6 -4 -13 -10 -16 -5 -3 -10 1 -10 9 0 9 5 16 10
16 6 0 10 -4 10 -9z m-122 -68 c-2 -10 -11 -17 -21 -17 -9 1 -17 -4 -17 -12 0
-7 -5 -16 -11 -20 -8 -4 -9 0 -4 15 3 12 3 21 -2 20 -22 -4 -25 2 -7 16 28 21
66 20 62 -2z m-398 -212 c0 -5 -7 -11 -15 -15 -15 -5 -20 5 -8 17 9 10 23 9
23 -2z m218 -37 c1 -17 -2 -23 -10 -18 -6 4 -17 -1 -25 -11 -12 -17 -13 -14
-13 28 0 45 1 46 23 36 14 -6 24 -20 25 -35z m-111 -46 c-3 -7 -5 -2 -5 12 0
14 2 19 5 13 2 -7 2 -19 0 -25z m139 13 c-16 -18 -62 -18 -51 0 3 4 12 6 20 2
8 -3 15 0 15 6 0 6 7 11 17 11 15 0 15 -2 -1 -19z m-41 -31 c-3 -5 -12 -10
-18 -10 -7 0 -6 4 3 10 19 12 23 12 15 0z m-189 -18 c-4 -3 -31 -5 -61 -4 -47
1 -53 -1 -49 -16 5 -15 4 -14 -9 1 -11 13 -25 17 -44 14 -15 -2 -22 -2 -15 0
6 3 12 8 12 11 0 4 39 6 86 4 47 -2 83 -6 80 -10z m119 -4 c4 -14 8 -18 12
-10 2 6 9 12 15 12 6 0 5 -6 -2 -15 -7 -9 -15 -13 -18 -10 -3 3 -11 0 -19 -6
-10 -9 -13 -8 -13 0 0 7 -5 9 -10 6 -6 -4 -7 -11 -4 -17 11 -18 -18 -26 -36
-10 -24 20 -15 41 17 37 18 -2 27 3 30 16 7 26 19 24 28 -3z m-378 -4 c-3 -3
-12 -4 -19 -1 -8 3 -5 6 6 6 11 1 17 -2 13 -5z m268 -14 c-3 -5 3 -18 15 -30
25 -25 25 -27 -2 -41 -17 -9 -24 -9 -32 3 -6 8 -26 20 -43 27 -32 13 -41 25
-25 34 9 6 59 -16 60 -26 1 -4 8 -15 17 -23 16 -17 17 -14 5 41 -3 14 -1 25 6
25 3 0 3 -4 -1 -10z m-1482 -14 c4 -10 1 -13 -9 -9 -7 3 -14 9 -14 14 0 14 17
10 23 -5z m144 -12 c-3 -3 -12 -4 -19 -1 -8 3 -5 6 6 6 11 1 17 -2 13 -5z
m-104 -28 c3 -8 1 -17 -6 -20 -7 -4 0 -4 15 -3 25 4 47 -17 33 -31 -3 -3 -5 0
-5 6 0 7 -9 12 -19 12 -34 0 -49 10 -44 31 6 22 19 25 26 5z m90 -6 c-16 -7
-21 -15 -16 -27 5 -15 3 -16 -7 -6 -25 23 -19 39 14 41 28 1 29 0 9 -8z m1207
0 c0 -5 -4 -10 -10 -10 -5 0 -10 5 -10 10 0 6 5 10 10 10 6 0 10 -4 10 -10z
m-1013 -6 c-3 -3 -12 -4 -19 -1 -8 3 -5 6 6 6 11 1 17 -2 13 -5z m-181 -18
c18 -18 18 -24 -2 -43 -15 -15 -16 -14 -13 8 2 13 0 30 -4 37 -11 16 1 15 19
-2z m1259 5 c-6 -5 -19 -11 -30 -14 -16 -4 -14 -5 6 -6 15 0 32 5 39 13 6 8
18 12 26 9 12 -4 12 -8 -3 -18 -10 -7 -21 -11 -25 -9 -5 3 -8 2 -8 -3 0 -4
-12 -9 -27 -9 -16 -1 -36 -3 -45 -5 -9 -2 -16 1 -15 6 1 6 7 9 14 7 7 -2 13 4
13 12 0 8 12 16 28 19 15 2 29 5 32 6 2 0 0 -3 -5 -8z m-1185 -41 c0 -5 -2
-10 -4 -10 -3 0 -8 5 -11 10 -3 6 -1 10 4 10 6 0 11 -4 11 -10z m1150 -15
c-33 -19 -50 -18 -26 0 11 8 27 15 35 15 10 -1 7 -6 -9 -15z m-1250 1 c0 -3
-4 -8 -10 -11 -5 -3 -10 -1 -10 4 0 6 5 11 10 11 6 0 10 -2 10 -4z m640 -6 c0
-5 -11 -10 -24 -10 -14 0 -28 5 -31 10 -4 6 7 10 24 10 17 0 31 -4 31 -10z
m247 -5 c2 -6 -27 -9 -78 -7 -57 3 -84 0 -89 -9 -5 -7 -16 -9 -26 -5 -17 6
-16 8 6 21 29 16 181 16 187 0z m-537 -10 c-5 -7 -7 -15 -4 -18 4 -3 -3 -5
-15 -4 -11 1 -21 5 -21 10 0 5 -7 6 -16 3 -9 -3 -12 -2 -9 5 4 5 15 7 26 4 10
-4 19 -2 19 3 0 5 7 9 15 9 10 0 12 -4 5 -12z m758 4 c-2 -3 4 -14 12 -24 8
-11 10 -16 3 -12 -6 4 -15 2 -18 -4 -4 -5 -13 -8 -21 -5 -7 3 -16 1 -19 -3 -4
-7 -50 -21 -90 -26 -5 -1 -17 -5 -26 -9 -9 -4 -32 -8 -52 -9 -20 -2 -39 -6
-43 -10 -12 -12 -46 -8 -38 5 5 8 2 9 -10 5 -10 -4 -30 -8 -44 -8 -23 -1 -22
-3 8 -9 l35 -7 -36 -2 c-19 0 -53 8 -75 18 l-39 20 102 -3 c56 -2 100 1 97 5
-3 5 7 11 22 15 17 4 29 2 35 -7 6 -11 11 -11 21 -1 6 6 30 12 53 13 l40 1
-35 13 c-41 16 -31 18 23 6 36 -9 54 3 20 12 -10 3 2 3 27 1 43 -4 44 -3 13 6
-18 6 -33 13 -33 16 0 3 9 3 19 -1 11 -3 22 -1 26 5 7 11 29 10 23 -1z m92 1
c0 -5 -2 -10 -4 -10 -2 0 -12 -3 -20 -6 -12 -5 -15 -2 -10 10 7 17 34 22 34 6z
m-980 -10 c12 -8 9 -10 -12 -10 -16 0 -28 5 -28 10 0 13 20 13 40 0z m930 -10
c0 -5 -2 -10 -4 -10 -3 0 -8 5 -11 10 -3 6 -1 10 4 10 6 0 11 -4 11 -10z
m-750 -10 c0 -5 -2 -10 -4 -10 -3 0 -8 5 -11 10 -3 6 -1 10 4 10 6 0 11 -4 11
-10z m160 0 c0 -6 -30 -10 -75 -10 -97 0 -97 14 0 18 47 2 75 -1 75 -8z m368
3 c-10 -2 -26 -2 -35 0 -10 3 -2 5 17 5 19 0 27 -2 18 -5z m-791 -25 c29 -12
38 -15 61 -17 7 0 11 -5 8 -10 -7 -11 -56 -2 -56 11 0 5 -8 8 -17 7 -10 -1
-27 -1 -38 0 -17 1 -18 3 -5 11 19 12 14 12 47 -2z m137 -11 c-1 -9 1 -16 5
-15 3 1 23 -2 44 -6 26 -6 42 -4 54 5 9 8 14 9 10 3 -5 -8 16 -14 68 -19 44
-4 79 -12 86 -21 9 -11 7 -14 -10 -14 -12 0 -19 5 -16 10 3 6 -1 10 -10 10 -9
0 -13 -4 -10 -10 4 -6 -7 -10 -24 -10 -19 0 -30 5 -28 12 1 6 -7 13 -18 15
-15 3 -17 2 -6 -5 9 -7 0 -10 -30 -10 -35 0 -40 2 -24 9 14 6 3 7 -33 4 -40
-5 -52 -3 -46 6 5 8 0 10 -17 6 -13 -3 -30 -2 -38 2 -11 7 -10 11 5 20 11 6
15 11 11 11 -5 0 -5 5 -2 11 10 15 30 5 29 -14z m496 13 c0 -5 -9 -10 -20 -10
-11 0 -20 5 -20 10 0 6 9 10 20 10 11 0 20 -4 20 -10z m-114 -47 c29 -9 51
-20 48 -24 -2 -4 -35 -8 -72 -8 -57 0 -70 3 -80 19 -15 25 -2 26 58 5 23 -8
50 -15 59 -14 9 0 -6 9 -34 19 -63 23 -49 25 21 3z"/>
<path d="M2692 4050 c-14 -24 -16 -33 -2 -25 5 3 18 -3 28 -13 18 -18 18 -17
18 15 -1 21 -5 32 -13 29 -6 -3 -13 -1 -15 5 -2 5 -9 0 -16 -11z"/>
<path d="M2642 4010 c-24 -31 -13 -52 15 -28 14 11 16 11 8 -2 -8 -13 -7 -13
8 -1 9 7 17 10 17 5 0 -4 5 -3 11 3 14 14 2 36 -14 26 -18 -11 -38 -12 -31 -2
3 5 10 7 15 4 5 -3 6 1 3 9 -7 19 -4 21 -32 -14z"/>
<path d="M2275 3650 c-3 -5 -1 -10 4 -10 6 0 11 5 11 10 0 6 -2 10 -4 10 -3 0
-8 -4 -11 -10z"/>
<path d="M2226 3613 c-6 -14 -5 -15 5 -6 7 7 10 15 7 18 -3 3 -9 -2 -12 -12z"/>
<path d="M4129 3507 c6 -8 7 -18 3 -22 -4 -5 -1 -5 6 -1 10 6 10 11 1 22 -6 8
-14 14 -16 14 -3 0 0 -6 6 -13z"/>
<path d="M2189 3393 c-9 -2 -19 -16 -22 -31 -7 -36 0 -41 12 -9 6 15 19 27 33
29 16 2 19 5 8 9 -8 3 -22 4 -31 2z"/>
<path d="M1647 3351 c3 -12 11 -17 19 -14 11 4 12 9 3 19 -16 20 -28 17 -22
-5z"/>
<path d="M1610 3297 c-8 -12 -13 -28 -11 -36 1 -8 -2 -10 -10 -5 -8 4 -10 3
-5 -5 6 -9 11 -9 21 -1 8 7 18 9 23 6 6 -3 16 1 23 10 11 13 9 14 -17 9 -28
-6 -28 -6 -10 9 13 11 16 20 10 26 -6 6 -15 2 -24 -13z"/>
<path d="M1560 3210 c0 -5 5 -10 11 -10 5 0 7 5 4 10 -3 6 -8 10 -11 10 -2 0
-4 -4 -4 -10z"/>
<path d="M1795 3120 c-3 -5 -1 -10 4 -10 6 0 11 5 11 10 0 6 -2 10 -4 10 -3 0
-8 -4 -11 -10z"/>
<path d="M1501 3044 c0 -11 3 -14 6 -6 3 7 2 16 -1 19 -3 4 -6 -2 -5 -13z"/>
<path d="M1625 3040 c-3 -5 -2 -10 4 -10 5 0 13 5 16 10 3 6 2 10 -4 10 -5 0
-13 -4 -16 -10z"/>
<path d="M4325 2851 c-3 -5 -1 -12 5 -16 5 -3 10 1 10 9 0 18 -6 21 -15 7z"/>
<path d="M1714 1752 c3 -5 0 -13 -6 -15 -9 -4 -10 -6 -1 -6 17 -1 25 16 12 25
-7 4 -9 3 -5 -4z"/>
<path d="M3885 1730 c-3 -5 -1 -10 4 -10 6 0 11 5 11 10 0 6 -2 10 -4 10 -3 0
-8 -4 -11 -10z"/>
<path d="M1736 1701 c-4 -5 -2 -12 3 -15 5 -4 12 -2 15 3 4 5 2 12 -3 15 -5 4
-12 2 -15 -3z"/>
<path d="M1767 1683 c-12 -11 -8 -25 5 -17 7 5 9 2 5 -9 -3 -8 0 -18 8 -21 9
-3 12 0 8 10 -4 10 0 12 13 8 15 -6 14 -2 -5 14 -27 25 -26 24 -34 15z"/>
<path d="M1810 1625 c-11 -13 -10 -14 4 -9 9 3 16 10 16 15 0 13 -6 11 -20 -6z"/>
<path d="M1834 1623 c-7 -11 -7 -22 -2 -28 5 -5 18 -25 29 -43 17 -30 22 -32
36 -20 9 7 14 8 10 2 -3 -6 7 -26 23 -44 17 -19 30 -29 30 -23 0 6 -6 16 -14
23 -8 6 -12 19 -9 28 4 15 3 15 -7 2 -10 -13 -11 -13 -6 2 5 18 -25 34 -44 23
-6 -4 -10 6 -10 22 1 25 2 26 14 11 7 -10 16 -15 19 -11 4 3 7 1 7 -6 0 -7 5
-9 10 -6 14 8 13 25 -2 25 -6 0 -20 8 -30 17 -16 14 -21 15 -28 3 -6 -10 -9
-6 -12 14 -3 24 -4 25 -14 9z"/>
<path d="M1930 1550 c0 -5 5 -10 10 -10 6 0 10 -11 10 -25 0 -14 5 -25 10 -25
6 0 10 -6 10 -13 0 -7 7 -22 15 -33 11 -13 15 -15 13 -4 -3 21 11 60 22 60 5
0 12 -4 15 -10 7 -12 25 -13 25 -2 0 4 -19 15 -41 26 -34 16 -43 16 -50 5 -5
-8 -9 -9 -9 -3 0 5 6 16 13 23 8 10 8 12 0 7 -6 -3 -14 -2 -18 4 -8 13 -25 13
-25 0z"/>
<path d="M2010 1431 c0 -5 9 -13 20 -16 11 -3 20 -13 20 -21 0 -8 4 -13 9 -10
5 4 12 0 14 -6 3 -7 6 -8 6 -2 1 10 -53 64 -64 64 -3 0 -5 -4 -5 -9z"/>
<path d="M3303 1369 c-5 -18 -11 -20 -39 -16 -26 4 -32 2 -27 -9 9 -25 56 -15
81 17 20 24 21 29 7 29 -9 0 -19 -9 -22 -21z"/>
<path d="M2928 1293 c7 -3 16 -2 19 1 4 3 -2 6 -13 5 -11 0 -14 -3 -6 -6z"/>
<path d="M4187 1773 c-4 -3 -7 -11 -7 -17 0 -6 5 -5 12 2 6 6 9 14 7 17 -3 3
-9 2 -12 -2z"/>
<path d="M4100 1665 c-8 -9 -8 -15 -2 -15 12 0 26 19 19 26 -2 2 -10 -2 -17
-11z"/>
<path d="M4030 1605 c7 -9 15 -13 17 -11 7 7 -7 26 -19 26 -6 0 -6 -6 2 -15z"/>
<path d="M3732 1373 c-6 -2 -10 -9 -6 -14 8 -14 21 -11 21 6 0 8 -1 15 -1 14
-1 0 -7 -3 -14 -6z"/>
<path d="M2885 1120 c3 -5 8 -10 11 -10 2 0 4 5 4 10 0 6 -5 10 -11 10 -5 0
-7 -4 -4 -10z"/>
</g>
</svg>
