<?xml version="1.0"?><svg width="58.282" height="58.282" xmlns="http://www.w3.org/2000/svg">
 <title>Phone icon</title>
 <g>
  <title>Layer 1</title>
    <g id="_152222920">
    <path fill="#fff" d="m24.185699,22.4995c-5.4466,3.144501 2.863701,18.723999 8.8237,15.283001c1.058399,1.833199 4.467499,7.738098 5.525902,9.571198c-2.514603,1.4519 -4.643101,2.367203 -7.5585,0.7006c-8.094601,-4.6273 -17.004601,-20.054298 -16.751101,-29.255798c0.087999,-3.196 1.970999,-4.4483 4.434,-5.8703c1.058399,1.8332 4.4676,7.7381 5.5259,9.571301l0.000099,0z" class="fil0" id="_152222248" stroke="url(#svg_11)"/>
    <path fill="#fff" d="m26.4704,22.239901c-0.58849,0.339779 -1.3458,0.136969 -1.68564,-0.45158l-5.209499,-9.023161c-0.33984,-0.588619 -0.13703,-1.34586 0.451519,-1.685699l2.737991,-1.58075c0.588549,-0.33984 1.34598,-0.136849 1.685759,0.4517l5.209501,9.023101c0.339779,0.588499 0.136909,1.345798 -0.45158,1.685579l-2.73805,1.580811z" class="fil0" id="_150519168" stroke="url(#svg_11)"/>
    <path fill="#fff" d="m40.702301,46.8904c-0.58849,0.339779 -1.345802,0.136971 -1.685642,-0.451641l-5.209499,-9.023159c-0.33984,-0.588558 -0.137028,-1.34586 0.451519,-1.685638l2.737991,-1.580811c0.588551,-0.339783 1.345982,-0.136791 1.68576,0.451698l5.209499,9.023102c0.339779,0.588558 0.136909,1.34586 -0.45158,1.685638l-2.738049,1.580811z" class="fil0" id="_226148072" stroke="url(#svg_11)"/>
    </g>
 </g>
</svg>